<?xml version="1.0" encoding="UTF-8"?>
<svg id="Layer_1" data-name="Layer 1" xmlns="http://www.w3.org/2000/svg" viewBox="0 0 400 400">
  <rect width="400" height="400" style="fill: #202020;"/>
  <g>
    <path d="m276.6,353.33l-37.9-7.38c-13.16-13.16-32.06-17.82-32.06-33.33l-10.75,4.85c-13.57,30.86-38.87,41.44-70.37,41.44-26.98,0-46.21-9.94-57.68-29.81h-.97v70.9H27.38V105.18h39.5v151.71c0,20.52,5.57,36.84,16.72,48.95,11.15,12.12,25.69,18.18,43.62,18.18,19.55,0,35.42-6.94,47.62-20.84,12.2-13.89,18.3-32.55,18.3-55.98l-7.21-142.01h17.26l-1.97,154.95c0,30.38,70.21,80.77,75.38,93.21v-.02Z" style="fill: #fff;"/>
    <path d="m365.79,9.94v37.56c-17.93-9.21-36.84-13.81-56.71-13.81-30.86,0-55.54,13.73-74.03,41.2-18.5,27.47-27.75,64.22-27.75,110.26h.97c16.15-32.8,42.65-49.19,79.49-49.19,30.37,0,54.53,9.74,72.46,29.2,17.93,19.47,26.9,45.52,26.9,78.15s-10.26,61.92-30.78,83.49-46.61,32.35-78.28,32.35c-34.89,0-62.28-13.89-82.15-41.68-19.87-27.79-29.81-66.8-29.81-117.05,0-60.91,13-109.54,39.02-145.89C231.12,18.18,265.46,0,308.11,0c24.23,0,43.46,3.31,57.68,9.94h0Zm-79.36,159.7c-20.52,0-37.16,6.95-49.92,20.84-12.77,13.9-19.14,30.29-19.14,49.19,0,23.75,6.34,44.03,19.02,60.83,12.68,16.81,29.53,25.2,50.53,25.2s36.19-7.31,48.47-21.93,18.42-33.16,18.42-55.62c0-24.56-5.9-43.78-17.69-57.68-11.79-13.89-28.35-20.84-49.68-20.84h-.01Z" style="fill: #fff;"/>
  </g>
</svg>